<svg width="138" height="92" viewBox="0 0 138 92" version="1.1" xmlns="http://www.w3.org/2000/svg" xmlns:xlink="http://www.w3.org/1999/xlink">
<title>logo_2</title>
<desc>Created using Figma</desc>
<g id="Canvas" transform="translate(6663 2836)">
<rect x="-6663" y="-2836" width="138" height="92" fill="#FFFFFF" fill-opacity="1"/>
 clip-path="url(#clip-0)"<g id="UI Kit nbpai.ru">
<g id="logo_2">
<g id="logo">
<g id="Fill_5">
<use xlink:href="#path0_fill" transform="matrix(-1 0 0 1 -6625 -2826)" fill="url(#paint0_linear)"/>
</g>
<g id="Fill_4">
<use xlink:href="#path0_fill" transform="translate(-6563 -2826)" fill="url(#paint1_linear)"/>
</g>
<g id="Fill_3">
<use xlink:href="#path1_fill" transform="matrix(-1 0 0 1 -6625 -2805)" fill="url(#paint2_linear)"/>
</g>
<g id="Fill_2">
<use xlink:href="#path1_fill" transform="translate(-6563 -2805)" fill="url(#paint3_linear)"/>
</g>
<g id="Fill_1">
<use xlink:href="#path2_fill" transform="translate(-6626 -2836)" fill="#2F52BE"/>
</g>
<g id="car_garage">
<g id="car">
<use xlink:href="#path3_fill" transform="translate(-6609 -2805)" fill-opacity="0.5"/>
</g>
<g id="Path">
<use xlink:href="#path4_fill" transform="matrix(0.951057 -0.309017 -0.309017 -0.951057 -6604.97 -2793.71)" fill="#2F52BE"/>
</g>
<g id="Path">
<use xlink:href="#path4_fill" transform="matrix(-0.951057 -0.309017 0.309017 -0.951057 -6583.03 -2793.71)" fill="#2F52BE"/>
</g>
<g id="garage">
<use xlink:href="#path5_fill" transform="translate(-6621 -2825)" fill="#FFFFFF" fill-opacity="0.5"/>
</g>
</g>
</g>
<g id="text">
<g id="&#208;&#157;&#208;&#144;&#208;&#166;&#208;&#152;&#208;&#158;&#208;&#157;&#208;&#144;&#208;&#155;&#208;&#172;&#208;&#157;&#208;&#158;&#208;&#149; &#208;&#144;&#208;&#146;&#208;&#162;&#208;&#158;&#208;&#145;&#208;&#174;&#208;&#160;">
<use xlink:href="#path6_fill" transform="translate(-6627 -2766)" fill="#545457"/>
</g>
</g>
</g>
</g>
</g>
<defs>
<linearGradient id="paint0_linear" x1="0" y1="0" x2="1" y2="0" gradientUnits="userSpaceOnUse" gradientTransform="matrix(7.60415 0 0 3.40186 0 8.5)">
<stop offset="0" stop-color="#B3241A"/>
<stop offset="1" stop-color="#D52B1E"/>
</linearGradient>
<linearGradient id="paint1_linear" x1="0" y1="0" x2="1" y2="0" gradientUnits="userSpaceOnUse" gradientTransform="matrix(7.60415 0 0 3.40186 0 8.5)">
<stop offset="0" stop-color="#B3241A"/>
<stop offset="1" stop-color="#D52B1E"/>
</linearGradient>
<linearGradient id="paint2_linear" x1="0" y1="0" x2="1" y2="0" gradientUnits="userSpaceOnUse" gradientTransform="matrix(-4.22344 -0 -0 -3.26357 4.22344 8.5)">
<stop offset="0" stop-color="#0842B0"/>
<stop offset="1" stop-color="#043186"/>
</linearGradient>
<linearGradient id="paint3_linear" x1="0" y1="0" x2="1" y2="0" gradientUnits="userSpaceOnUse" gradientTransform="matrix(-4.22344 -0 -0 -3.26357 4.22344 8.5)">
<stop offset="0" stop-color="#0842B0"/>
<stop offset="1" stop-color="#043186"/>
</linearGradient>
<path id="path0_fill" fill-rule="evenodd" d="M 0 0L 38 0C 38 0 33.6001 17 22.7104 17L 0 17L 0 0Z"/>
<path id="path1_fill" fill-rule="evenodd" d="M 0 0L 22 0C 22 0 18.2581 17 4.82353 17L 0 17L 0 0Z"/>
<path id="path2_fill" fill-rule="evenodd" d="M 3.31633 60C 1.48472 60 0 58.5304 0 56.7174L 0 3.28256C 0 1.4696 1.48472 0 3.31633 0L 60.6837 0C 62.5153 0 64 1.4696 64 3.28256L 64 56.7174C 64 58.5304 62.5153 60 60.6837 60L 3.31633 60Z"/>
<path id="path3_fill" fill-rule="evenodd" d="M 29.9399 3.59766C 29.8101 3.85645 29.4395 4.06323 28.8682 4.19482L 28.4951 4.28003C 27.2251 4.56885 26.6147 4.93555 26.6802 5.46558L 26.7026 5.64844L 26.8784 5.6958C 26.8916 5.69946 28.0312 6.01904 28.5708 6.9895L 28.7432 7.38745C 28.7646 7.45557 28.7856 7.52466 28.8008 7.5979C 29.1152 9.10059 29.0103 14.2759 28.998 14.8726L 28.9971 14.9282L 28.9971 16.28C 28.9971 17 27.9907 17 26.4751 17L 26.4062 17C 24.9302 17.0002 23.9971 17.0002 23.9971 16.2913C 23.9971 15.9607 23.9966 15.9468 23.9961 15.9382L 23.9971 15.4192C 23.9941 15.3879 14.9971 15.4192 14.9971 15.4192L 5.99707 15.408L 5.99707 16.28C 5.99707 17 5.33789 17 3.7251 17C 2.11279 17 0.99707 17 0.99707 16.28L 0.99707 14.9282L 0.996582 14.8704L 0.996582 14.8591C 0.993164 14.4197 0.975586 11.9773 0.99707 9.96313C 1.01562 8.21973 1.06348 8.06104 1.1333 7.82886C 1.15186 7.76758 1.17188 7.70093 1.19336 7.59814C 1.21973 7.47021 1.25977 7.35303 1.30518 7.24023L 1.37695 7.07495C 1.89453 6.04199 3.10205 5.69995 3.11572 5.69653L 3.29102 5.64917L 3.31396 5.46631C 3.29102 5.27075 2.76904 4.56934 1.49854 4.28076L 1.12598 4.19556C 0.554688 4.06396 0.189453 3.87817 0.0595703 3.6189C -0.0253906 3.44971 -0.0214844 3.2251 0.0844727 2.97534C 0.153809 2.81079 0.379883 2.77612 0.557617 2.77612C 0.665039 2.77612 0.745117 2.78979 0.745117 2.78979C 0.813965 2.79834 2.01514 2.93262 2.70508 2.93262C 2.78271 2.93262 2.83643 2.948 2.86475 2.97852C 2.96631 3.08765 2.94531 3.44653 2.92871 3.73511C 2.92139 3.8645 2.91406 3.9939 2.91406 4.11548C 2.91406 4.38696 3.15967 4.8269 3.41895 4.89282L 3.62842 4.94604L 3.7251 4.75024C 3.74072 4.71851 5.29932 1.91675 5.96973 0.759766C 6.48096 -0.122314 14.9971 0.0065918 14.9971 0.0065918C 14.9971 0.0065918 23.4585 -0.0439453 23.9243 0.759766C 24.4126 1.60254 25.373 3.18604 25.8643 3.99561L 25.8667 4C 26.0483 4.29907 26.165 4.4917 26.1689 4.50024L 26.2656 4.69629L 26.4751 4.64307C 26.7344 4.57715 27.0801 4.37842 27.0801 4.11523C 27.0801 3.99365 27.0728 3.86426 27.0654 3.73486C 27.0483 3.44629 27.0278 3.08765 27.1294 2.97827C 27.1577 2.948 27.2114 2.93237 27.2891 2.93237C 27.979 2.93237 29.1802 2.7981 29.249 2.78931C 29.249 2.78931 29.3291 2.77563 29.4365 2.77563C 29.6138 2.77563 29.8403 2.8103 29.9097 2.97485C 30.0146 3.22437 30.0249 3.42798 29.9399 3.59766ZM 5.71631 5.35815L 24.1367 5.35815C 24.23 5.35815 24.3164 5.30908 24.3657 5.22852C 24.4146 5.14771 24.4189 5.04712 24.377 4.9624C 24.0459 4.29443 22.6182 1.56689 22.5874 1.53931C 22.2412 1.23364 14.9971 1.146 14.9971 1.146C 14.9971 1.146 7.57715 1.09375 7.36523 1.53931C 7.12988 2.03345 6.73291 2.72266 6.34717 3.39233L 6.33496 3.41382C 6.00195 3.99243 5.67822 4.55469 5.47607 4.9624C 5.43408 5.04712 5.43848 5.14771 5.4873 5.22852C 5.53613 5.30884 5.62305 5.35815 5.71631 5.35815ZM 11.6523 11.906C 14.7437 11.9014 19.252 11.895 20.5981 11.9089C 20.9209 11.9089 21.4517 12.2427 21.4517 12.9814C 21.4517 13.7202 20.8345 14.0625 20.5981 14.0625L 9.0625 14.0625C 8.96484 14.0625 8.36377 13.6438 8.36377 12.9814C 8.36377 12.3191 8.91797 11.9089 9.0625 11.9089L 11.6523 11.906Z"/>
<path id="path4_fill" fill-rule="evenodd" d="M 2.94737 0.436561C 2.32815 0.665188 1.00744 1.39799 0.54749 1.87156C 0.0875439 2.34513 -0.312158 3.25376 0.34926 3.68814C 1.01068 4.12253 2.24626 3.80044 2.48372 3.68814C 2.72118 3.57584 3.47179 3.3714 4.29502 2.71171C 5.11824 2.05203 5.35657 0.780619 5.33492 0.592752C 5.31833 0.30577 5.12448 0 4.73464 0C 4.34479 0 3.56658 0.207934 2.94737 0.436561Z"/>
<path id="path5_fill" fill-rule="evenodd" d="M 27 0L 0 10L 0 13L 4 13L 4 37L 8 37L 8 13L 46 13L 46 37L 50 37L 50 13L 54 13L 54 10L 27 0Z"/>
<path id="path6_fill" fill-rule="evenodd" d="M 5.89844 5.76562L 4.53516 5.76562L 4.53516 3.39062L 2.51562 3.39062L 2.51562 5.76562L 1.14453 5.76562L 1.14453 0.078125L 2.51562 0.078125L 2.51562 2.33594L 4.53516 2.33594L 4.53516 0.078125L 5.89844 0.078125L 5.89844 5.76562ZM 9.99609 4.70312L 8.11719 4.70312L 7.78906 5.76562L 6.32422 5.76562L 8.41016 0.078125L 9.69922 0.078125L 11.8008 5.76562L 10.3281 5.76562L 9.99609 4.70312ZM 8.44531 3.64453L 9.66797 3.64453L 9.05469 1.67188L 8.44531 3.64453ZM 12.1211 0.078125L 13.4844 0.078125L 13.4844 4.71094L 15.5273 4.71094L 15.5273 0.078125L 16.9023 0.078125L 16.9023 4.72266L 17.7734 4.72266L 17.6953 7.13672L 16.4023 7.13672L 16.4023 5.76562L 12.1211 5.76562L 12.1211 0.078125ZM 21.7227 0.078125L 23.0938 0.078125L 23.0938 5.76562L 21.7227 5.76562L 21.7227 2.17969L 19.6797 5.76562L 18.3086 5.76562L 18.3086 0.078125L 19.6797 0.078125L 19.6797 3.66797L 21.7227 0.078125ZM 28.7461 3.03906C 28.7461 3.59375 28.6432 4.08463 28.4375 4.51172C 28.2318 4.9388 27.9395 5.26758 27.5605 5.49805C 27.1816 5.72852 26.75 5.84375 26.2656 5.84375C 25.7812 5.84375 25.3516 5.73242 24.9766 5.50977C 24.6016 5.28711 24.3092 4.96875 24.0996 4.55469C 23.89 4.14062 23.7799 3.66537 23.7695 3.12891L 23.7695 2.80859C 23.7695 2.2513 23.8717 1.75977 24.0762 1.33398C 24.2806 0.908201 24.5736 0.579428 24.9551 0.347656C 25.3366 0.115884 25.7708 0 26.2578 0C 26.7396 0 27.1693 0.114582 27.5469 0.34375C 27.9245 0.572918 28.2181 0.899086 28.4277 1.32227C 28.6374 1.74544 28.7435 2.23047 28.7461 2.77734L 28.7461 3.03906ZM 27.3516 2.80078C 27.3516 2.23567 27.2572 1.80664 27.0684 1.51367C 26.8796 1.2207 26.6094 1.07422 26.2578 1.07422C 25.5703 1.07422 25.207 1.58984 25.168 2.62109L 25.1641 3.03906C 25.1641 3.59636 25.2565 4.02474 25.4414 4.32422C 25.6263 4.6237 25.901 4.77344 26.2656 4.77344C 26.612 4.77344 26.8789 4.6263 27.0664 4.33203C 27.2539 4.03776 27.349 3.61459 27.3516 3.0625L 27.3516 2.80078ZM 34.207 5.76562L 32.8438 5.76562L 32.8438 3.39062L 30.8242 3.39062L 30.8242 5.76562L 29.4531 5.76562L 29.4531 0.078125L 30.8242 0.078125L 30.8242 2.33594L 32.8438 2.33594L 32.8438 0.078125L 34.207 0.078125L 34.207 5.76562ZM 38.3047 4.70312L 36.4258 4.70312L 36.0977 5.76562L 34.6328 5.76562L 36.7188 0.078125L 38.0078 0.078125L 40.1094 5.76562L 38.6367 5.76562L 38.3047 4.70312ZM 36.7539 3.64453L 37.9766 3.64453L 37.3633 1.67188L 36.7539 3.64453ZM 45.3086 0.078125L 45.3086 5.76562L 43.9375 5.76562L 43.9375 1.13672L 42.6602 1.13672L 42.5664 3.04688C 42.5273 3.70573 42.4362 4.23177 42.293 4.625C 42.1497 5.01823 41.946 5.30534 41.6816 5.48633C 41.4173 5.66732 41.0573 5.76042 40.6016 5.76562L 40.2344 5.76562L 40.2344 4.71094L 40.4258 4.69141C 40.6992 4.65234 40.8971 4.48503 41.0195 4.18945C 41.1419 3.89388 41.2214 3.39584 41.2578 2.69531L 41.3555 0.078125L 45.3086 0.078125ZM 47.543 2.03516L 48.25 2.03516C 48.7005 2.03516 49.099 2.11198 49.4453 2.26562C 49.7917 2.41927 50.0579 2.63607 50.2441 2.91602C 50.4303 3.19596 50.5234 3.51693 50.5234 3.87891C 50.5234 4.4388 50.3158 4.89323 49.9004 5.24219C 49.485 5.59115 48.9271 5.76562 48.2266 5.76562L 46.168 5.76562L 46.168 0.078125L 47.543 0.078125L 47.543 2.03516ZM 47.543 3.08984L 47.543 4.71094L 48.2461 4.71094C 48.5247 4.71094 48.7454 4.63281 48.9082 4.47656C 49.071 4.32031 49.1523 4.11849 49.1523 3.87109C 49.1523 3.63672 49.0716 3.44792 48.9102 3.30469C 48.7487 3.16146 48.5247 3.08984 48.2383 3.08984L 47.543 3.08984ZM 55.9023 5.76562L 54.5391 5.76562L 54.5391 3.39062L 52.5195 3.39062L 52.5195 5.76562L 51.1484 5.76562L 51.1484 0.078125L 52.5195 0.078125L 52.5195 2.33594L 54.5391 2.33594L 54.5391 0.078125L 55.9023 0.078125L 55.9023 5.76562ZM 61.5859 3.03906C 61.5859 3.59375 61.4831 4.08463 61.2773 4.51172C 61.0716 4.9388 60.7793 5.26758 60.4004 5.49805C 60.0215 5.72852 59.5898 5.84375 59.1055 5.84375C 58.6211 5.84375 58.1914 5.73242 57.8164 5.50977C 57.4414 5.28711 57.1491 4.96875 56.9395 4.55469C 56.7298 4.14062 56.6198 3.66537 56.6094 3.12891L 56.6094 2.80859C 56.6094 2.2513 56.7116 1.75977 56.916 1.33398C 57.1204 0.908201 57.4134 0.579428 57.7949 0.347656C 58.1764 0.115884 58.6107 0 59.0977 0C 59.5794 0 60.0091 0.114582 60.3867 0.34375C 60.7643 0.572918 61.0579 0.899086 61.2676 1.32227C 61.4772 1.74544 61.5833 2.23047 61.5859 2.77734L 61.5859 3.03906ZM 60.1914 2.80078C 60.1914 2.23567 60.097 1.80664 59.9082 1.51367C 59.7194 1.2207 59.4492 1.07422 59.0977 1.07422C 58.4102 1.07422 58.0469 1.58984 58.0078 2.62109L 58.0039 3.03906C 58.0039 3.59636 58.0964 4.02474 58.2812 4.32422C 58.4661 4.6237 58.7409 4.77344 59.1055 4.77344C 59.4518 4.77344 59.7188 4.6263 59.9062 4.33203C 60.0938 4.03776 60.1888 3.61459 60.1914 3.0625L 60.1914 2.80078ZM 65.8203 3.35547L 63.6641 3.35547L 63.6641 4.71094L 66.2109 4.71094L 66.2109 5.76562L 62.293 5.76562L 62.293 0.078125L 66.2188 0.078125L 66.2188 1.13672L 63.6641 1.13672L 63.6641 2.33594L 65.8203 2.33594L 65.8203 3.35547ZM 5.50781 19.6719L 2.68945 19.6719L 2.19727 21.2656L 0 21.2656L 3.12891 12.7344L 5.0625 12.7344L 8.21484 21.2656L 6.00586 21.2656L 5.50781 19.6719ZM 3.18164 18.084L 5.01562 18.084L 4.0957 15.125L 3.18164 18.084ZM 8.83594 21.2656L 8.83594 12.7344L 11.9004 12.7344C 12.9981 12.7344 13.833 12.9355 14.4053 13.3379C 14.9775 13.7402 15.2637 14.3242 15.2637 15.0898C 15.2637 15.5313 15.1621 15.9082 14.959 16.2207C 14.7559 16.5332 14.457 16.7637 14.0625 16.9121C 14.5078 17.0293 14.8496 17.248 15.0879 17.5684C 15.3262 17.8887 15.4453 18.2793 15.4453 18.7402C 15.4453 19.5762 15.1807 20.2041 14.6514 20.624C 14.1221 21.0439 13.3379 21.2578 12.2988 21.2656L 8.83594 21.2656ZM 10.8926 17.6387L 10.8926 19.6836L 12.2402 19.6836C 12.6113 19.6836 12.8965 19.5986 13.0957 19.4287C 13.2949 19.2588 13.3945 19.0195 13.3945 18.7109C 13.3945 18 13.041 17.6426 12.334 17.6387L 10.8926 17.6387ZM 10.8926 16.291L 11.9648 16.291C 12.4141 16.2871 12.7344 16.2051 12.9258 16.0449C 13.1172 15.8848 13.2129 15.6484 13.2129 15.3359C 13.2129 14.9766 13.1094 14.7178 12.9023 14.5596C 12.6953 14.4014 12.3613 14.3223 11.9004 14.3223L 10.8926 14.3223L 10.8926 16.291ZM 23.2734 14.3223L 20.7129 14.3223L 20.7129 21.2656L 18.6562 21.2656L 18.6562 14.3223L 16.1426 14.3223L 16.1426 12.7344L 23.2734 12.7344L 23.2734 14.3223ZM 31.3652 17.1758C 31.3652 18.0078 31.2109 18.7441 30.9023 19.3848C 30.5937 20.0254 30.1553 20.5186 29.5869 20.8643C 29.0186 21.21 28.3711 21.3828 27.6445 21.3828C 26.918 21.3828 26.2734 21.2158 25.7109 20.8818C 25.1484 20.5478 24.71 20.0703 24.3955 19.4492C 24.0811 18.8281 23.916 18.1152 23.9004 17.3105L 23.9004 16.8301C 23.9004 15.9941 24.0537 15.2568 24.3604 14.6182C 24.667 13.9795 25.1064 13.4863 25.6787 13.1387C 26.251 12.791 26.9023 12.6172 27.6328 12.6172C 28.3555 12.6172 29 12.7891 29.5664 13.1328C 30.1328 13.4766 30.5732 13.9658 30.8877 14.6006C 31.2022 15.2354 31.3613 15.9629 31.3652 16.7832L 31.3652 17.1758ZM 29.2734 16.8184C 29.2734 15.9707 29.1318 15.3272 28.8486 14.8877C 28.5654 14.4482 28.1602 14.2285 27.6328 14.2285C 26.6016 14.2285 26.0566 15.0019 25.998 16.5488L 25.9922 17.1758C 25.9922 18.0117 26.1309 18.6543 26.4082 19.1035C 26.6855 19.5527 27.0977 19.7773 27.6445 19.7773C 28.1641 19.7773 28.5645 19.5566 28.8457 19.1152C 29.127 18.6738 29.2695 18.0391 29.2734 17.2109L 29.2734 16.8184ZM 38.1914 14.3223L 34.4941 14.3223L 34.4941 15.6699L 35.5547 15.6699C 36.2305 15.6699 36.8281 15.7852 37.3477 16.0156C 37.8672 16.2461 38.2666 16.5713 38.5459 16.9912C 38.8252 17.4111 38.9648 17.8926 38.9648 18.4355C 38.9648 19.2754 38.6533 19.957 38.0303 20.4805C 37.4072 21.0039 36.5703 21.2656 35.5195 21.2656L 32.4258 21.2656L 32.4258 12.7344L 38.1914 12.7344L 38.1914 14.3223ZM 34.4941 17.252L 34.4941 19.6836L 35.5488 19.6836C 35.9668 19.6836 36.2979 19.5664 36.542 19.332C 36.7861 19.0977 36.9082 18.7949 36.9082 18.4238C 36.9082 18.0723 36.7871 17.7891 36.5449 17.5742C 36.3027 17.3594 35.9668 17.252 35.5371 17.252L 34.4941 17.252ZM 50.3438 17.1758C 50.3438 18.0078 50.1895 18.7441 49.8809 19.3848C 49.5723 20.0254 49.1338 20.5186 48.5654 20.8643C 47.9971 21.21 47.3496 21.3828 46.623 21.3828C 45.9668 21.3828 45.376 21.2461 44.8506 20.9727C 44.3252 20.6992 43.8965 20.3037 43.5645 19.7861C 43.2324 19.2686 43.0215 18.666 42.9316 17.9785L 42.0469 17.9785L 42.0469 21.2656L 39.9961 21.2656L 39.9961 12.7344L 42.0469 12.7344L 42.0469 16.4492L 42.8906 16.4492C 42.9375 15.6797 43.1201 15.0039 43.4385 14.4219C 43.7568 13.8398 44.1914 13.3936 44.7422 13.083C 45.293 12.7725 45.916 12.6172 46.6113 12.6172C 47.334 12.6172 47.9785 12.7891 48.5449 13.1328C 49.1113 13.4766 49.5518 13.9658 49.8662 14.6006C 50.1807 15.2354 50.3398 15.9629 50.3438 16.7832L 50.3438 17.1758ZM 48.252 16.8184C 48.252 15.9707 48.1104 15.3272 47.8271 14.8877C 47.5439 14.4482 47.1387 14.2285 46.6113 14.2285C 45.5801 14.2285 45.0352 15.0019 44.9766 16.5488L 44.9707 17.1758C 44.9707 18.0117 45.1094 18.6543 45.3867 19.1035C 45.6641 19.5527 46.0762 19.7773 46.623 19.7773C 47.1426 19.7773 47.543 19.5566 47.8242 19.1152C 48.1055 18.6738 48.248 18.0391 48.252 17.2109L 48.252 16.8184ZM 53.6426 18.3711L 53.6426 21.2656L 51.5859 21.2656L 51.5859 12.7344L 54.9902 12.7344C 55.6426 12.7344 56.2197 12.8545 56.7217 13.0947C 57.2236 13.335 57.6123 13.6768 57.8877 14.1201C 58.1631 14.5635 58.3008 15.0664 58.3008 15.6289C 58.3008 16.4609 58.0029 17.126 57.4072 17.624C 56.8115 18.1221 55.9941 18.3711 54.9551 18.3711L 53.6426 18.3711ZM 53.6426 16.7832L 54.9902 16.7832C 55.3887 16.7832 55.6924 16.6836 55.9014 16.4844C 56.1104 16.2852 56.2148 16.0039 56.2148 15.6406C 56.2148 15.2422 56.1074 14.9238 55.8926 14.6855C 55.6777 14.4473 55.3848 14.3262 55.0137 14.3223L 53.6426 14.3223L 53.6426 16.7832ZM 66.6211 17.1758C 66.6211 18.0078 66.4668 18.7441 66.1582 19.3848C 65.8496 20.0254 65.4111 20.5186 64.8428 20.8643C 64.2744 21.21 63.627 21.3828 62.9004 21.3828C 62.1738 21.3828 61.5293 21.2158 60.9668 20.8818C 60.4043 20.5478 59.9658 20.0703 59.6514 19.4492C 59.3369 18.8281 59.1719 18.1152 59.1562 17.3105L 59.1562 16.8301C 59.1562 15.9941 59.3096 15.2568 59.6162 14.6182C 59.9229 13.9795 60.3623 13.4863 60.9346 13.1387C 61.5068 12.791 62.1582 12.6172 62.8887 12.6172C 63.6113 12.6172 64.2559 12.7891 64.8223 13.1328C 65.3887 13.4766 65.8291 13.9658 66.1436 14.6006C 66.458 15.2354 66.6172 15.9629 66.6211 16.7832L 66.6211 17.1758ZM 64.5293 16.8184C 64.5293 15.9707 64.3877 15.3272 64.1045 14.8877C 63.8213 14.4482 63.416 14.2285 62.8887 14.2285C 61.8574 14.2285 61.3125 15.0019 61.2539 16.5488L 61.248 17.1758C 61.248 18.0117 61.3867 18.6543 61.6641 19.1035C 61.9414 19.5527 62.3535 19.7773 62.9004 19.7773C 63.4199 19.7773 63.8203 19.5566 64.1016 19.1152C 64.3828 18.6738 64.5254 18.0391 64.5293 17.2109L 64.5293 16.8184Z"/>
</defs>
</svg>
